<?xml version="1.0" encoding="utf-8"?>
<!-- Generator: Adobe Illustrator 16.0.0, SVG Export Plug-In . SVG Version: 6.00 Build 0)  -->
<!DOCTYPE svg PUBLIC "-//W3C//DTD SVG 1.1//EN" "http://www.w3.org/Graphics/SVG/1.1/DTD/svg11.dtd">
<svg version="1.1" id="Layer_1" xmlns="http://www.w3.org/2000/svg" xmlns:xlink="http://www.w3.org/1999/xlink" x="0px" y="0px"
	 width="85.671px" height="85.64px" viewBox="0 0 85.671 85.64" enable-background="new 0 0 85.671 85.64" xml:space="preserve">
<g>
	<path fill-rule="evenodd" clip-rule="evenodd" fill="#E8ECF3" d="M42.215,0.007C18.306,0.426,0.119,19.829,0,42.308
		c-0.131,24.868,19.927,43.752,43.527,43.325c23.687-0.43,42.005-19.658,42.143-42.586C85.189,18.536,66.09-0.413,42.215,0.007z"/>
	<g>
		<path fill-rule="evenodd" clip-rule="evenodd" fill="#9FA7B1" d="M37.775,49.358c0.368-0.521,0.598-0.963,0.932-1.3
			c5.338-5.36,10.689-10.708,16.041-16.056c0.283-0.284,0.557-0.603,0.896-0.8c0.82-0.475,1.646-0.405,2.313,0.285
			c0.67,0.692,0.682,1.521,0.199,2.324c-0.203,0.337-0.522,0.608-0.806,0.893c-5.974,5.977-11.948,11.954-17.925,17.927
			c-1.417,1.418-2.243,1.423-3.641,0.026c-3.076-3.071-6.149-6.143-9.219-9.22c-1.047-1.05-1.172-2.249-0.343-3.055
			c0.812-0.79,1.933-0.664,2.967,0.369C31.951,43.508,34.701,46.275,37.775,49.358z"/>
	</g>
</g>
</svg>
